<?xml version="1.0" encoding="UTF-8"?>
<svg viewBox="0 0 131.15 70.38" xmlns="http://www.w3.org/2000/svg">
<defs>
<style>
	.cls-1,
	.cls-2{fill:none;stroke:#1e1e1c;stroke-miterlimit:10;stroke-width:0.3px;}.cls-1{stroke-dasharray:1 1;}
	.cls-3{font-size:6px;font-family:"Roboto", sans-serif;}
	.cls-7{fill:#1e1e1c;font-family:"Roboto", sans-serif;}
	.cls-4{letter-spacing:0em;}
	.cls-5{font-size:6px;fill:#8f8f24;font-family:"Roboto", sans-serif;}
	.cls-6{letter-spacing:-0.03em;}
	.cls-7{font-size:5px;fill:#838383;}
	.cls-8{fill:#b5b5b5;}
	.cls-9{fill:#33a94a;}
	.cls-10{fill:#b5b5b5;}
</style>

</defs>
<title>comparacion_s</title>
<g data-name="Layer 2">
<line class="cls-1" x2="131.15" y1="42.85" y2="42.85"/>
<line class="cls-1" x1=".28" x2="131.15" y1="22.55" y2="22.55"/>
<line class="cls-1" x1=".28" x2="131.15" y1="4.96" y2="4.96"/>
<line class="cls-2" x1=".28" x2="131.01" y1="61.79" y2="61.79"/>
<text class="cls-3" transform="translate(100.02 68.87)"><tspan x="0" y="0">Caballo</tspan></text>
<text class="cls-3" transform="translate(8.59 68.87)"><tspan x="5" y="0">Humano</tspan></text>
<text class="cls-5" transform="translate(43.86 68.87)"><tspan x="15" y="0">Tapir</tspan></text>
<text class="cls-7" transform="translate(.81 61.13)">0m</text>
<text class="cls-7" transform="translate(.81 42.18)">1m</text>
<text class="cls-7" transform="translate(.81 21.55)">1,5m</text>
<text class="cls-7" transform="translate(.81 4.3)">2m</text>
<path class="cls-8" d="M67.83,57.22l.13.11.07-.06a10.84,10.84,0,0,0,1.8-2.59,10.29,10.29,0,0,1-1.17,3l0,0,0,.09,0,0a3.8,3.8,0,0,0,1.27.2,5.07,5.07,0,0,0,.66,0l.17,0h0c1.32-.71,1.63-2.55,1.65-3.77a6.35,6.35,0,0,1-.1,3.1l0,.06.09.09.07,0a6.77,6.77,0,0,0,1.08-.68,2.4,2.4,0,0,1,0,.32c-.27,1-.06,1.23.36,1.65a4.08,4.08,0,0,1,.35.36c.32.37.29.48.26.59s0,.24.15.44a.88.88,0,0,0,.15.12c.52.58.06,1.94,0,2l0,.07.07,0a3.88,3.88,0,0,0,1.81.35,10.33,10.33,0,0,0,1.73-.16l.12,0-.16-.28-.3-.52,0,0c-.19-.34-.62-1.07-.87-1.43a.43.43,0,0,0,0-.07C77.1,60,77.05,60,77,60s-.67-.66-.6-1.07a2.85,2.85,0,0,0-.24-2.1,10.5,10.5,0,0,1-.27-3.3,10.86,10.86,0,0,1,.31-3.11l.07-.08a3.06,3.06,0,0,0,.9-2.28.5.5,0,0,1,.17-.43c0,.09.08.19.13.29a23,23,0,0,1,1.64,7.46,1.76,1.76,0,0,0,.62,1.85l.4.41c.39.43.38.57.37.69a.45.45,0,0,0,0,.2h0l0,0a.11.11,0,0,0,0,.12c.67.69.3,2.68.3,2.71l0,.08.06,0A3.87,3.87,0,0,0,83,62a7.83,7.83,0,0,0,2-.25l.15,0-.27-.41-.5-.75,0,0c-.3-.44-.87-1.29-1.22-1.76l0,0-.06,0L83,58.53a.68.68,0,0,0-.15-.15,1.82,1.82,0,0,1-.56-1A3.87,3.87,0,0,0,81.68,55a13.45,13.45,0,0,1-.79-3.78,13.46,13.46,0,0,1-.18-3.55l.05-.09A3.29,3.29,0,0,0,81.31,45c-.08-.42.15-.6.59-.94h0l0,0c.67-.52,1.93-1.49,2.59-4.72.08-.41.17-.84.28-1.31.07-.3.14-.6.21-.88s.13-.51.19-.75l.06-.05h0l0,0a2,2,0,0,1,.54,0l.16,0h.14l.09,0,.11,0,.13,0h0l.13,0a4.11,4.11,0,0,1,.54.29l0,0,.15.09.06,0,.16.1.07.05.28.2.46.31.32.23.1.07.25.17.11.08.07,0,.48.31.16.09.07,0,.28.16.22.12.25.13,0,0,.22.11.22.1.16.07c.12.06.24.1.37.15l.2.08.23.08.28.09h0c.11,0,.21.07.32.09s.23.06.34.09l.36.08a44.1,44.1,0,0,0,9.69,1h0a2.36,2.36,0,0,1,0,.37,4.91,4.91,0,0,1-.16.93,14.74,14.74,0,0,0-.21,3.26,7.46,7.46,0,0,1-.2,2.42v0a2,2,0,0,0-.19,1.84l0,.18a19,19,0,0,1-1,5.4c-.39,1-.7,2.06,0,2.39s1.29.93,1.23,1.31v.07l.06,0,0,0a.08.08,0,0,0,0,.05c.52.54-.13,2-.14,2l0,.08.08,0a2.19,2.19,0,0,0,.72.25h0l.1,0,.15,0h.76a11.11,11.11,0,0,0,1.74-.15l.11,0-.12-.28-.24-.52,0-.05c-.16-.34-.5-1-.7-1.41a.43.43,0,0,0,0-.07l0-.06,0,0-.13-.08s0,0,0,0-1.21-.77-1.14-1.57a1.4,1.4,0,0,1,.17-.69.5.5,0,0,0,.08-.38A.62.62,0,0,0,104,56a.36.36,0,0,1-.11-.36c0-.08,0-.25,0-.48a20.5,20.5,0,0,1,.67-3.89,10.15,10.15,0,0,0,.49-1.28,9.52,9.52,0,0,0,.27-1v0c.15-.74.46-2.1.81-3.31l.09.77a7,7,0,0,1,.08,2.45,2,2,0,0,0,0,1.86l.06.18a17.82,17.82,0,0,1-.36,5.43c-.27,1-.46,2.07.26,2.39s1.42,1,1.4,1.34v.07l.06,0,.08,0s0,0,0,0c.58.55.1,2,.09,2l0,.07.06,0a4,4,0,0,0,1.82.35,10,10,0,0,0,1.72-.16l.13,0-.16-.28-.3-.52,0,0c-.2-.34-.62-1.07-.87-1.43l0-.07,0-.05h0l-.06,0c-.06-.06-.09-.08-.14-.08h0c-.25-.15-1.26-.81-1.29-1.55a1.25,1.25,0,0,1,.1-.7.53.53,0,0,0,0-.38.73.73,0,0,0-.24-.43.43.43,0,0,1-.16-.37c0-.08,0-.25,0-.48a20.58,20.58,0,0,1,.21-3.91,10.39,10.39,0,0,0,.49-2.32v0a22.61,22.61,0,0,1,1-5.29,16.63,16.63,0,0,0,1.17-4.19,3.71,3.71,0,0,1,.12-.63l0-.16h0v0c1.21-.6,1.85-1.54,2.43-3.59a4.85,4.85,0,0,0,.34-.83v0a5.86,5.86,0,0,0,.24-2c0-.28,0-.52-.05-.74a.17.17,0,0,1,0-.07v-.08l0-.33h0a.92.92,0,0,0,0-.16,5,5,0,0,1,1-2.94,33.21,33.21,0,0,0,1.5-3,10,10,0,0,1,1.87-3.21l.15-.11a3,3,0,0,1,.69-.35,1.72,1.72,0,0,1,1-.12c.08.15.14.24.15.26a1.25,1.25,0,0,0,.25.29,4.83,4.83,0,0,0,2.69.85l.38,0c.2.08,2.5,1,2.84,1.29.1.07.12.2.15.36s.13.72.92.73l.65,0c.59,0,.83,0,.93-.09v0s0,0,0,0a.09.09,0,0,0,0-.07,2.18,2.18,0,0,0,.45-.12,1.17,1.17,0,0,0,.44-.29h0l0,0a1,1,0,0,0,.22-.49.68.68,0,0,1,0-.15v-.06a4,4,0,0,1,.18-.59,1,1,0,0,0,.11-.53,3.2,3.2,0,0,0-.52-1.27A13.93,13.93,0,0,0,129.08,20a16.87,16.87,0,0,1-1.84-2.61,8.46,8.46,0,0,0-.62-1c-.11-.14-.27-.37-.46-.63l-.16-.23-.23-.33c-.18-.25-.38-.52-.59-.79h0l.12.05,0-.07a3.52,3.52,0,0,0-.57-1l.35.21.31.19-.18-.31a2.27,2.27,0,0,0-.76-.78,3.83,3.83,0,0,0-.17-2l-.14-.32,0,.35a2.09,2.09,0,0,1-.76,1.37l-.16.14-.1,0a3.88,3.88,0,0,0-.16-2.08l-.14-.33,0,.36a2.07,2.07,0,0,1-.75,1.37,5.27,5.27,0,0,0-.63.58,5.87,5.87,0,0,0-3.89,1,1,1,0,0,1-.41.23,3.35,3.35,0,0,0-1.64.73c-.1.07-.22.19-.37.32a4,4,0,0,1-1.72,1.12A6,6,0,0,0,111,17l-.05.05c-.08.07-.24.17-.42.3a7.09,7.09,0,0,0-1.48,1.19c-.23.26-.38.48-.51.65s-.33.48-.61.53a1.18,1.18,0,0,0-.9.72,1.34,1.34,0,0,1-.77.83l-.15.06h0a3.53,3.53,0,0,1-.46.15l-.8.17-.33.07a21.62,21.62,0,0,0-3.81,1.1,17.53,17.53,0,0,0-1.63.79l-.37.21c-2.26,1.34-7.66-.18-10.88-1.1-.68-.19-1.28-.36-1.69-.45a12.92,12.92,0,0,0-7,.14A12,12,0,0,0,75.71,24h0c-.35.09-3.42,1-4.76,6.17a29.83,29.83,0,0,0-.51,8.4A28,28,0,0,1,69.88,47l-.1.37.26-.29a5.43,5.43,0,0,0,.88-2.62,35,35,0,0,1-.83,6.79,25.26,25.26,0,0,1-2.22,5.91ZM74.3,43.87a53.25,53.25,0,0,1-1.44-10.58,19.46,19.46,0,0,0,1.83,4.32A14.65,14.65,0,0,1,75.38,39a.86.86,0,0,0,.1.16,3.68,3.68,0,0,1-.33,3.68c-.29.45-.56.84-.82,1.19Z"/>
<path class="cls-9" d="M45.08,61s-.15,1-1,.08a4.57,4.57,0,0,0-.24-.48,6.24,6.24,0,0,1-.26-1.82c0-.58-.26-1.93-.3-3.53s-.07-1.29.47-1.88a8.52,8.52,0,0,0,1.63-2.17A26.81,26.81,0,0,0,42.92,49c-.21,0-.61.16-.54-.53a6.65,6.65,0,0,1-1.69-4s-.19-2.14,2.25-4.79a11.86,11.86,0,0,1,9.2-4.11,18.11,18.11,0,0,1,6.45,1c.43.11,1.94,1,5.14-.2l.27.08v-.12l.16.08,0-.11s.29.2.29.15a1.49,1.49,0,0,0-.08-.23l.21.18-.06-.28.14.18v-.23l.2.15,0-.18.15.15,0-.23.19.18.13-.26.3.13v-.15l.2.11,0-.18L66,36l0-.22.16.17.08-.27.25.13,0-.17.19.17v-.18l.22.21,0-.21.23.16,0-.16.19.18.09-.22.23.23.06-.25.16.17V35.5l.14.2.11-.18.16.21.1-.21.15.24,0-.19.09.16.24-.19-.12.19.33-.11-.1.15.38-.09-.17.22.35-.16-.14.21.32-.15L69.7,36l.34-.1-.14.17.36-.06-.13.14h.49l-.21.12h.33l-.12.14.37,0-.15.16.35,0-.13.11.29,0-.14.12.32,0-.13.13.28,0-.11.09.26,0-.15.16a.53.53,0,0,0,.41-.21c.11-.19.53-.88,1.18-.28,0,0,.49.23.22,1.57h.19l-.13.14h.27l-.1.09.22,0-.15.13.19,0-.11.11h.21l-.12.12.24,0-.09.1s.09,0,.2.2A5.48,5.48,0,0,0,76.09,41a11.36,11.36,0,0,1,2,1.36,8.34,8.34,0,0,0,.83.58,5.29,5.29,0,0,1,1.71,3.56s.07.61,0,.72a.59.59,0,0,1-.73.43,1.38,1.38,0,0,1-.33,0,1,1,0,0,1-.59,0,2.63,2.63,0,0,1-1.49.11c-.68-.2-.53.27-2.71,0A14.78,14.78,0,0,1,71.51,47l-.88.29c-.57.2-1,.2-1.16.43a3.41,3.41,0,0,1-1.33,1.2,5.56,5.56,0,0,0-1.68,1.73c-.14.21-1.24,3.13-1.59,4.26s-.53,5,0,5.7,1,.57,1,.57,1.12.67.53.74a5.76,5.76,0,0,1-1.92,0s.14.51-.58.35-.68-.27-.72-.58A9.2,9.2,0,0,1,63,59.92c0-.78-.18-.89-.18-.89a5.77,5.77,0,0,1-1.31,1.56c-.64.4-1.07.42-1.08.13a.84.84,0,0,1,.36-1s-.65.16-.8.41a.62.62,0,0,1-.21-1c.41-.63.46-.55.46-.55s-.82.19-.47-.22S61,57,61.24,56.69a1,1,0,0,0,.09-1.11s-.42-.72-.65-1-2.33-2.73-2.42-3l-.6.17-.22.19,0-.13-.33.17v-.11l-.49.18.08-.11-.32.09h-.55l-.33.12,0-.12s-1.06.06-1.89,0h-.23V52l-.33.07,0-.11-.36.14.13-.15-.29.1,0-.14L52.4,52l0-.11-.21,0,0-.08-.25,0,0-.13-.2.09.09-.11-.23.08.11-.14-.24,0,.05-.07h-.32l.15-.07-.25,0a1.82,1.82,0,0,0-.54-.33A2.53,2.53,0,0,1,50,51s-.29.18-.31.31,0,.17-.16.24a2.5,2.5,0,0,1,0,1s0,.28.18,1.21a16.68,16.68,0,0,0,.72,3,5.81,5.81,0,0,0,.73,1.91,6.61,6.61,0,0,0,2,2.29s.38.07,1.1.92a1,1,0,0,1-.78-.11s.49.57.23.66a2.09,2.09,0,0,1-1.31-.17A1.85,1.85,0,0,0,52,62s-.18.93-.67.78-.4-.42-.58-.65A4.85,4.85,0,0,1,50.24,61a5.37,5.37,0,0,0-1-1.67,2.68,2.68,0,0,1-.77-1.52,2,2,0,0,1-.62-1.12,11,11,0,0,0-.69-2.19S45.75,55.89,45.72,57s-.32,2.37.47,2.94l1.24.9-.35.12s.31.47.18.55a7.76,7.76,0,0,1-1.58-.31Z"/>
<path class="cls-10" d="M31.63,30.73c0-.22.06-.57.08-.8a8,8,0,0,0-.31-3.12c-.36-1.1-.24-1.87-.63-2.72a2.81,2.81,0,0,0-2-1.55,7.35,7.35,0,0,1-1.13-.44,5.5,5.5,0,0,0-.76-.23,1.43,1.43,0,0,1-.52-.29,1.92,1.92,0,0,1-.74-1.25,1.72,1.72,0,0,0,.47-.6h0a1.39,1.39,0,0,0,.12-.28s0,0,0-.05,0-.45.17-.56l.2-.14c.22-.17.23-.22.26-.5,0-.13.22-.73.05-.9s-.24,0-.26-.09a2.6,2.6,0,0,1,0-.57h0v0h0a1.31,1.31,0,0,0,0-.17,3.54,3.54,0,0,0-.08-.91,1.26,1.26,0,0,0-.26-1.07,3.08,3.08,0,0,0-.71-.69,3.29,3.29,0,0,0-1-.25,3.43,3.43,0,0,0-1.06,0,4.67,4.67,0,0,0-.92.28c-.23.1-.27.28-.36.49a1,1,0,0,1-.17.27c-.07.06-.15,0-.2.12a4.55,4.55,0,0,0-.15,1.44h0c0,.11,0,.21,0,.32a7,7,0,0,1,.05.78c0,.08-.14,0-.25.09s0,.77,0,.9c0,.28,0,.33.26.5l.2.14c.13.12.13.44.19.61a1.81,1.81,0,0,0,.59.88,1.93,1.93,0,0,1-.75,1.25,1.35,1.35,0,0,1-.52.29,5.37,5.37,0,0,0-.75.23,7.47,7.47,0,0,1-1.14.44,2.79,2.79,0,0,0-2,1.55A27.15,27.15,0,0,0,17,26.81a8,8,0,0,0-.32,3.12c0,.23.08.58.08.8a8.64,8.64,0,0,1-.18,1.53,8.21,8.21,0,0,0-.14,2.93c.16,1,.21,2.57.23,3a2.91,2.91,0,0,1-.1.72,3.5,3.5,0,0,0-.1,1.25A10.63,10.63,0,0,0,16.88,42a3.75,3.75,0,0,0,1.09.7c.2,0,.57.28.67.27s.12-.39.05-.49a2.71,2.71,0,0,0-.42-.41,1,1,0,0,1-.37-.6,4.57,4.57,0,0,1,0-.75c0-.09.06-.37.2-.29s.1.07.12.36.15,1.05.7.84c.19-.07.14-.3.05-.5a2.86,2.86,0,0,1-.23-1,1.86,1.86,0,0,0-.47-1c-.27-.37.08-1.71.4-3a7.14,7.14,0,0,0,.22-2.39,8.1,8.1,0,0,1,0-1.63c.1-.53.37-1.29.51-2.1a11.5,11.5,0,0,0,.4-2.37c.14,1.46.65,2.72.54,3.94-.13,1.49.15,1.92,0,2.87-.09.5-.25.63-.41,1.26a20.82,20.82,0,0,0-.32,2.39c-.12,1.72-.06,1.38-.09,2.87A21.57,21.57,0,0,0,19.92,46a8.85,8.85,0,0,1,.3,3.71,9.63,9.63,0,0,0,.05,4c.43,1.72,1,3.68,1.09,4.78s.15,1.48-.06,1.82-.81,1-.83,1.16-.27.5.68.5,1.13.07,1.33-.07a.12.12,0,0,1,.16,0,.42.42,0,0,0,.42.06c.22,0,.34-.21.33-.5a3.43,3.43,0,0,1,0-.57,9.91,9.91,0,0,1,0-1.12c.12-.64-.18-.84-.15-2.82,0-1.72.43-3.19.31-4.21A27.29,27.29,0,0,1,23,49.5a9.65,9.65,0,0,0,.58-3.9c-.06-1.25.23-1.56.33-5.11,0-.27.54-.27.55,0,.1,3.55.39,3.86.33,5.11-.13,2.61.52,3.14.58,3.9a27.29,27.29,0,0,1-.53,3.33c-.12,1,.3,2.49.32,4.21,0,2-.28,2.18-.16,2.82A8,8,0,0,1,25,61a2.6,2.6,0,0,1,0,.57.43.43,0,0,0,.34.5c.24.06.35,0,.41-.06A.12.12,0,0,1,26,62c.2.14.37.07,1.34.07s.69-.3.67-.5-.62-.81-.83-1.16-.18-.73-.05-1.82.65-3.06,1.08-4.78a9.47,9.47,0,0,0,.05-4A8.89,8.89,0,0,1,28.52,46,21.57,21.57,0,0,0,29,41c0-1.49,0-1.15-.1-2.87a18.81,18.81,0,0,0-.32-2.39c-.15-.63-.31-.76-.41-1.26-.18-1,.11-1.38,0-2.87-.11-1.22.4-2.48.54-3.94A11,11,0,0,0,29.13,30c.13.81.41,1.57.5,2.1a7.42,7.42,0,0,1,0,1.63,7.41,7.41,0,0,0,.22,2.39c.32,1.24.68,2.58.41,3a1.79,1.79,0,0,0-.48,1,2.33,2.33,0,0,1-.08.59,2.71,2.71,0,0,1-.14.45c-.1.2-.15.43,0,.5.56.21.69-.55.71-.84s0-.3.11-.36.2.2.2.29a4.59,4.59,0,0,1,0,.75,1.09,1.09,0,0,1-.37.6,2.71,2.71,0,0,0-.42.41c-.07.1-.17.49.05.49s.46-.25.66-.27a3.94,3.94,0,0,0,1.1-.7,11,11,0,0,0,.36-1.81,3.1,3.1,0,0,0-.1-1.25,2.5,2.5,0,0,1-.09-.72,27.19,27.19,0,0,1,.22-3,8,8,0,0,0-.14-2.93A8.64,8.64,0,0,1,31.63,30.73Z" data-name="Man Front"/>
</g>
</svg>
