<svg xmlns="http://www.w3.org/2000/svg" viewBox="0 0 210.01 65.56"><defs><style>.cls-1,.cls-2{fill:none;stroke:#1e1e1c;stroke-miterlimit:10;stroke-width:0.3px;}.cls-1{stroke-dasharray:1 1;}.cls-3{font-size:6.32px;}.cls-10,.cls-3{fill:#1e1e1c;font-family:BarlowSemiCondensed-Light, Barlow Semi Condensed;font-weight:300;}.cls-4{letter-spacing:0em;}.cls-5{font-size:7.17px;font-family:BarlowSemiCondensed-SemiBold, Barlow Semi Condensed;font-weight:600;}.cls-13,.cls-5{fill:#8f8f24;}.cls-6{letter-spacing:-0.03em;}.cls-7{letter-spacing:0em;}.cls-8{letter-spacing:0em;}.cls-9{letter-spacing:-0.01em;}.cls-10{font-size:5.06px;}.cls-11{fill:#271e16;}.cls-12{fill:#8e837e;}</style></defs><title>Comparacion</title><g id="Layer_2" data-name="Layer 2"><g id="Elementos"><line class="cls-1" y1="38.03" x2="210.01" y2="38.03"/><line class="cls-1" x1="0.45" y1="17.74" x2="210.01" y2="17.74"/><line class="cls-1" x1="0.45" y1="0.15" x2="210.01" y2="0.15"/><line class="cls-2" x1="0.45" y1="56.98" x2="209.78" y2="56.98"/><text class="cls-3" transform="translate(84.77 64.06)"><tspan class="cls-4">C</tspan><tspan x="3.29" y="0">aballo</tspan></text><text class="cls-5" transform="translate(25.98 64.06)"><tspan class="cls-6">T</tspan><tspan x="3.45" y="0">apir</tspan></text><text class="cls-3" transform="translate(150.35 64.16)">Rino<tspan class="cls-7" x="10.71" y="0">c</tspan><tspan x="13.58" y="0">e</tspan><tspan class="cls-8" x="16.52" y="0">r</tspan><tspan x="18.53" y="0">on</tspan><tspan class="cls-9" x="24.55" y="0">t</tspan><tspan x="26.46" y="0">e</tspan></text><text class="cls-10" transform="translate(0.81 62.07)">0 cm</text><text class="cls-10" transform="translate(0.81 43.13)">1 m</text><text class="cls-10" transform="translate(0.81 22.5)">1,5 m</text><text class="cls-10" transform="translate(0.81 5.25)">2m</text><path class="cls-11" d="M128,36.71a5.28,5.28,0,0,0,.6,2.22s.1.09.12,0c.13-.25-.18-.91-.21-1.18a5.07,5.07,0,0,1,.34-2.83c.37-.77.9-1.43,1.28-2.19a5.23,5.23,0,0,0,.5-1.42,9.81,9.81,0,0,1,.65,2.09c0,1.44-.53,1.59.31,3.09s-.54,4.28-1.31,7a4.85,4.85,0,0,0-.24,2.29c0-.14,0-.28,0-.42a2.76,2.76,0,0,0,.11.67,7.13,7.13,0,0,0,1.37,2.09,4,4,0,0,1,.59,1.17,4.14,4.14,0,0,1-.86,3.9.8.8,0,0,0-.22.8c0,.12.13.36.25.36h0s0,0,0,0l.13.08,0,0,.19.11h0l.2.1,0,0,.46.17h0l.22.06h0l.25.06h0l.24,0h0l.49.06h.68l.15,0h0l.1,0h.06s.07,0,.09,0h0a4,4,0,0,0,.34.27l.11.07.09.07.15.08.1.06.16.07.12.05.19.06.1,0a1.76,1.76,0,0,0,.31,0,3.76,3.76,0,0,0,1.77-.49s.05,0,.06,0,0,0,0,0a1.81,1.81,0,0,0,.71.21h0c.07,0,.13-.09.2-.09s0-.1,0-.1h.39l.09,0,.13,0,.09,0,.13,0,.09,0,.11,0,.09,0,.1-.06.08-.06.09-.09.06-.07a.5.5,0,0,0,.08-.12l0-.07a1.35,1.35,0,0,0,.08-.24s0-.05,0-.08h0a1.33,1.33,0,0,0-.08-.71,5.6,5.6,0,0,0-2.13-2.09,5.37,5.37,0,0,1-1.29-2,5.24,5.24,0,0,1,.58-4.38h0a9.34,9.34,0,0,1,.52-.78,1.36,1.36,0,0,1,.16-.17c7.12-2.91,5.83-6.83,5.62-7.35h0A8.29,8.29,0,0,0,147,40.23a5.24,5.24,0,0,1,.18,3.45,1,1,0,0,0-.1.17s0,0,0,0a3.93,3.93,0,0,0-.19,3.1s0,0,0,0a1.92,1.92,0,0,0,.3.63l.1.21a9.59,9.59,0,0,1,.56,3.59l-.07.11s0,0,0,0c-.38.31-2.08,1.88.12,3.28l.15.08h0l.1,0,.29.16.14.06.28.12.12,0,.28.09.09,0,.28.06h.07l.27,0h.36l.24,0h0l.22-.05h0l.21-.07h0a2.21,2.21,0,0,0,.74-.42s0,0,0,0h0s-.11,0-.11,0h0c.58.29.7.46,1,.56h.12l.2,0,.12,0,.17,0h.48l.13,0h.08l.27-.07h.05l.12,0,.07,0,.11,0,.07,0,.09,0,0,0,.15-.08,0,0,.06,0,0,0,0,0h0s0,0,0,0-.14.45.61.45h0a4.14,4.14,0,0,0,1.12-.39c.07,0,.13-.13.19-.16l.05,0,.11-.07,0,0,.08-.07,0,0,.06-.09v0a.65.65,0,0,0,0-.13l0,0s0-.07,0-.1v0s.05-.06,0-.09,0,0,0-.06l0-.09h0a.11.11,0,0,1,0,0,.35.35,0,0,0-.07-.12,6.15,6.15,0,0,0-2.93-2.45c-1.29-.48-.77-1.59-1.71-3.27-.32-.58-.6-.79-.39-1.21a2.26,2.26,0,0,0,.34-.35s0-.06-.05-.06c.12-.13.26-.28.44-.45a4.69,4.69,0,0,0,.46-.54,2.18,2.18,0,0,0,.22-.21s0,0,0,0a8.75,8.75,0,0,0,1-2.57c.8.09,1.65.16,2.54.2,6.89.31,10.73-2.26,11.22-2.61h.07a21.74,21.74,0,0,1,1,3.39h-.06a5,5,0,0,0,.22,2.83c.12.27.42.53.42.79h0s.07,0,.09.08l.52,4.16h0s0,0,0,0l0,.06h0l0,.08,0,0-.07.1h0c-.42.59-1.31,2-1,3.1a.84.84,0,0,0,.06.14.74.74,0,0,0,0,.14h0l0,.06a2,2,0,0,0,.17.23l.22.22.07.06.13.1.08,0,.11.07.09,0,.1,0,.08,0,.1,0,.09,0h.57l.35,0h.82l.14,0,.16,0,.11,0,.05,0h-.1s.64.2,1.15.34a4.64,4.64,0,0,0,.7.19h0a2.84,2.84,0,0,0,.38,0h.08a2.68,2.68,0,0,0,.65,0h.06a1.32,1.32,0,0,0,.45-.18l.05,0a.83.83,0,0,0,.15-.11h0a.57.57,0,0,0,.13-.14l0,0a1.13,1.13,0,0,0,.1-.13h.07s-.05,0-.05,0h0v0a0,0,0,0,0,.06,0v0h.09s0,0,0,0,.07,0,.11,0h.3l.13,0H178l.15,0,.07,0,.2,0,.06,0,.19-.08,0,0a1.18,1.18,0,0,0,.19-.11.39.39,0,0,0,.08-.1s0,0,0,0a.36.36,0,0,0,0-.09.09.09,0,0,1,0,0,.28.28,0,0,1,0-.09s0,0,0-.08h-.07l0,0,.05,0s0,0,0,0c.3,0,.59.11.85.11h0s.07-.15.11-.15.12-.16.18-.16h.06l.21,0h0a.67.67,0,0,1,.17.06l.06,0v0h.07a4.61,4.61,0,0,0,1.64.51h.71l.24,0h.07l.15,0,.06,0,.12,0,.05,0,.12,0h0s.07,0,.09,0v0h0a1.4,1.4,0,0,0,.66.29s0,.05,0,.05.15.11.22.11h0c.07,0,.15-.08.22-.09s0-.09.05-.09l.21,0h0l.2-.06h.05l.17-.08h0l.14-.11,0,0,.11-.15c0-.1.07-.19.1-.29s0-.06,0-.1a.88.88,0,0,0,0-.16v-.09l0-.11s0,.05,0,0a1.69,1.69,0,0,0,0,.23h0a4.52,4.52,0,0,0-2.23-2.7,6.43,6.43,0,0,1,0-2.8l.06,0s0,0,0-.06c0-.2.1-.4.15-.61l0,0s0,0,0,0A16.25,16.25,0,0,1,185.36,46l.09-.06s0,0,0,0c.31-.61.64-1.19,1-1.72a.91.91,0,0,0,.2-.24s0,0,0,0l.52-.81a5.7,5.7,0,0,0,1.15-2.47h0s0,0,0,0,.06-.28.1-.42l0-.13a2.86,2.86,0,0,0,.07-.28l0-.13.06-.25,0-.1.06-.29h0c0-.1,0-.18,0-.26v0c0-.05,0-.09,0-.13.31,0,.78-.27,1.33-1.25A8.36,8.36,0,0,1,194,39.87c1.72,2,2.19,1.19,4,1.58s3.22.63,4-1c0,0,.05,0,0,0,.25,0,2.75,0,3.41-1.63a1.48,1.48,0,0,0,.12-1.07s0,0,0-.06h0l0-.07,0-.07a.56.56,0,0,0-.05-.08l0-.07-.07-.11-.06-.08a.22.22,0,0,0-.05-.08.3.3,0,0,0,0-.08l0-.08,0-.09,0-.09,0-.07,0-.14a.14.14,0,0,1,0-.06,1.06,1.06,0,0,1,0-.19s0,0,0,0a2.71,2.71,0,0,1,.1-1s.64-.27.06-1.54h.19a2.27,2.27,0,0,1-.62.79l-.07,0s0,0,0,0a4.43,4.43,0,0,0,.83-.71s0,.13,0,.12.06.14.14.14h0c.85-1.17,4.89-5.54,3.71-11.65,0-.06,0-.39,0-.43l0,0a.36.36,0,0,0,0-.09v0l0-.06h0l-.07,0h0l-.06,0h0l-.06.06,0,0-.09.12s0,0,0,0-.09.13-.11.18l-.11.11v0a9.62,9.62,0,0,1-.18,1.21c-.18,1.47-2.65,5.88-6,5.88h0a1.22,1.22,0,0,0,0-.33.69.69,0,0,0-.77-.5.45.45,0,0,0,0-.29c0-.09-.09-.14-.24-.14a1.39,1.39,0,0,1-1,.31,1.72,1.72,0,0,0,.88-.21h.17a9,9,0,0,0,2-4.48c0-.12,0-.39,0-.5s0-.06,0-.09,0-.19,0-.26,0-.1,0-.12,0-.36,0-.36h0s0-.06,0-.14,0,.07,0,.06a1.11,1.11,0,0,0,0-.17l0,0a2.32,2.32,0,0,0,0-.3h.1s.2-.07.2-.09h0v-.07h0s-.23,0-.24,0h-.22l0,0h0a.05.05,0,0,0,0,0h0l0,0h0l-.05.06v0l0,.05v0h0c-.15.24-.34.62-.53,1a5.53,5.53,0,0,1-3.46,2.77H199a.66.66,0,0,0-.55-.85s-.62-.32-1.11-1.85c-.07-.22-.13-.46-.2-.73-.37-1.62.12-3.41-.48-5.38a6.9,6.9,0,0,0-.84-1.74c.12-.8.88-1.16,2.33-2.48,1.62-1.47.56-6.49.56-6.49-.18.52-.89,1.14-2.76,2.47a3.44,3.44,0,0,0-1.48,3.92,2.65,2.65,0,0,1,0,1.12,6,6,0,0,0-3.64-1.09s-1.17-.13-2.79-2.25a6.69,6.69,0,0,0-2.56-1.89l0,0a.05.05,0,0,0,0,0c-.25-.33-2.05-2.56-4-2.84a7.13,7.13,0,0,1,.13,1.87s-.05,0-.05,0v0A10.1,10.1,0,0,0,174.92,9h0l-.09,0a18.08,18.08,0,0,1-2.43-.7c-1.22-.47-3-.34-7.15,1.42s-6.83-.08-8.75-.8-6.86-.74-8.38-1.2c-7.43-2.24-17.81,1.37-18.4,11.85-.08,1.34-.11,2.54-.1,3.62-.71,1.09-.39,2.62-.32,3.84a11.9,11.9,0,0,1-.8,5.75A6.73,6.73,0,0,0,128,36.71Zm48.53,15.12a9.18,9.18,0,0,1,.26-4.95,1.36,1.36,0,0,0,.13-.3s0,0,0,0a2.33,2.33,0,0,1,.07-.25c.11-.39.21-.73.31-1a1.84,1.84,0,0,0,.09-.25v0c.4-1.29.61-1.77.71-2.14a1.51,1.51,0,0,0,.1-.38h0s0,0,0-.06c.16,0,.52-.07,1-.16a14.36,14.36,0,0,0-.11,1.93s-.07,0-.06,0l.06.26c0,1.82.14,3.73-.24,4.51a4.65,4.65,0,0,0-.42,2.22l-.14.22s0,.05,0,.05l-.13.18h0a6.28,6.28,0,0,0-.67,1.17l-.26-.15A1.48,1.48,0,0,1,176.54,51.83Zm28-17.3h0ZM173.27,56.47h0l.06,0Zm-4.65-16h0v0Z"/><path class="cls-12" d="M64.15,51.74l.13.1.06-.06a10.41,10.41,0,0,0,1.73-2.48A9.86,9.86,0,0,1,65,52.22l0,0,0,.08,0,0a3.76,3.76,0,0,0,1.22.19,4.64,4.64,0,0,0,.63,0l.16,0h0c1.26-.68,1.56-2.44,1.58-3.61a5.94,5.94,0,0,1-.1,3l0,.06.09.08.07,0a8.27,8.27,0,0,0,1-.65c0,.11,0,.22-.06.3-.25,1,0,1.18.35,1.58l.33.34c.31.36.28.47.26.57s0,.23.13.42a.53.53,0,0,0,.15.11c.49.56.06,1.86.05,1.87l0,.07.06,0a3.89,3.89,0,0,0,1.74.33,9.31,9.31,0,0,0,1.65-.16l.12,0-.15-.27c-.08-.12-.18-.3-.29-.5l0,0c-.19-.32-.6-1-.83-1.36l-.05-.07c-.08-.12-.13-.16-.18-.17s-.63-.62-.57-1a2.68,2.68,0,0,0-.23-2,9.63,9.63,0,0,1-.25-3.16,10.39,10.39,0,0,1,.29-3l.06-.08a2.91,2.91,0,0,0,.87-2.17.48.48,0,0,1,.16-.42,1.69,1.69,0,0,0,.12.28A22,22,0,0,1,75,49.94a1.69,1.69,0,0,0,.58,1.77,4.76,4.76,0,0,1,.39.39c.37.42.36.55.35.66a.4.4,0,0,0,0,.19h0v0a.13.13,0,0,0,0,.12c.65.66.29,2.56.29,2.58l0,.08.06,0a3.7,3.7,0,0,0,2.06.51,7.52,7.52,0,0,0,1.86-.24l.14,0-.26-.39c-.12-.18-.28-.43-.48-.71l0-.05c-.29-.43-.84-1.24-1.17-1.69l0,0-.06,0L78.62,53a.68.68,0,0,0-.15-.15,1.65,1.65,0,0,1-.53-1,3.69,3.69,0,0,0-.54-2.27A13.12,13.12,0,0,1,76.64,46a13.6,13.6,0,0,1-.17-3.4l0-.09A3.15,3.15,0,0,0,77.05,40c-.08-.4.14-.58.56-.9h0l0,0c.64-.5,1.84-1.42,2.48-4.52.08-.39.16-.8.26-1.25.07-.29.13-.57.2-.84s.13-.49.19-.72l.06-.05h0l0,0a2.2,2.2,0,0,1,.51,0l.16,0h.13l.08,0,.11,0,.12,0h0l.13.06a5.27,5.27,0,0,1,.52.27l0,0,.14.09.06,0,.15.09.07.05.27.19.43.3.32.22.09.06.24.17.11.07.07,0,.45.29.15.09.08,0,.26.15.21.12.24.12,0,0,.21.1.2.09.16.08.35.14.2.07.22.08.27.09h0l.31.08.33.09.34.07a41.25,41.25,0,0,0,9.27,1H98c0,.11,0,.23,0,.35a5.44,5.44,0,0,1-.15.9,13.39,13.39,0,0,0-.21,3.11,7.26,7.26,0,0,1-.19,2.32v0a2,2,0,0,0-.18,1.76l0,.16A18,18,0,0,1,96.37,50c-.38,1-.67,2,0,2.29s1.24.89,1.18,1.26l0,.06.06,0,0,0s0,0,0,0c.5.53-.13,1.89-.13,1.9l0,.07.07,0a2.46,2.46,0,0,0,.69.25h.05l.1,0,.15,0h.72a10,10,0,0,0,1.66-.15l.11,0-.12-.26c0-.12-.13-.3-.23-.5l0,0c-.16-.32-.48-1-.67-1.34l0-.07,0-.06,0,0-.12-.08h0c-.1-.06-1.16-.73-1.1-1.49a1.37,1.37,0,0,1,.17-.67A.55.55,0,0,0,99,51a.61.61,0,0,0-.19-.41.37.37,0,0,1-.11-.35l.06-.46a19.69,19.69,0,0,1,.63-3.72,8,8,0,0,0,.47-1.22,8.83,8.83,0,0,0,.26-1v0c.15-.71.44-2,.78-3.17,0,.25,0,.5.08.74a6.83,6.83,0,0,1,.08,2.34,2,2,0,0,0,0,1.78l.06.17a16.84,16.84,0,0,1-.34,5.19c-.26,1-.44,2,.25,2.3s1.35.9,1.33,1.28v.06l.06,0,.07,0s0,0,0,0c.56.53.09,1.9.09,1.91l0,.07.07,0a3.87,3.87,0,0,0,1.74.33,9.44,9.44,0,0,0,1.65-.16l.12,0-.16-.27c-.07-.12-.17-.29-.28-.5l0,0c-.19-.32-.6-1-.83-1.36l0-.07,0-.05h0l-.06,0a.17.17,0,0,0-.13-.08h0c-.24-.15-1.21-.78-1.23-1.49a1.18,1.18,0,0,1,.08-.66.43.43,0,0,0,0-.36.69.69,0,0,0-.23-.42.38.38,0,0,1-.15-.35v-.46a18.29,18.29,0,0,1,.2-3.75,10.31,10.31,0,0,0,.47-2.22v0a21.87,21.87,0,0,1,.91-5.06,15.52,15.52,0,0,0,1.12-4,3.35,3.35,0,0,1,.12-.6l0-.15h0v0c1.15-.57,1.76-1.48,2.31-3.43a4.23,4.23,0,0,0,.33-.8v0a5.58,5.58,0,0,0,.22-1.87c0-.27,0-.5,0-.71a.17.17,0,0,0,0-.07v-.08l0-.31-.09,0h.09a.76.76,0,0,0,0-.15,4.82,4.82,0,0,1,1-2.82,31.59,31.59,0,0,0,1.43-2.85,9.63,9.63,0,0,1,1.79-3.07l.14-.1a3,3,0,0,1,.66-.34,1.6,1.6,0,0,1,1-.11,2.37,2.37,0,0,0,.15.24,1.4,1.4,0,0,0,.24.29,4.73,4.73,0,0,0,2.57.81l.37,0c.19.08,2.38,1,2.71,1.23a.47.47,0,0,1,.14.34c.06.29.13.69.88.7l.63,0c.56,0,.79,0,.88-.08l0,0,0,0v-.07a1.9,1.9,0,0,0,.43-.12,1,1,0,0,0,.42-.28h0l0,0a.87.87,0,0,0,.2-.47.78.78,0,0,0,0-.14v-.06a2.73,2.73,0,0,1,.17-.56,1.1,1.1,0,0,0,.1-.51,3.08,3.08,0,0,0-.49-1.22,14.87,14.87,0,0,0-1.49-2A15.43,15.43,0,0,1,121,13.61a9.24,9.24,0,0,0-.6-.92c-.11-.14-.26-.36-.44-.61l-.15-.22-.23-.31c-.17-.24-.36-.5-.56-.76h0l.11.05,0-.06a3.38,3.38,0,0,0-.54-.92l.33.2.3.18-.17-.3a2.31,2.31,0,0,0-.74-.75,3.57,3.57,0,0,0-.16-1.94L118,6.93l0,.34a2,2,0,0,1-.73,1.31l-.15.13-.1,0a3.66,3.66,0,0,0-.15-2l-.14-.32,0,.35A2,2,0,0,1,115.94,8a4.78,4.78,0,0,0-.6.55,5.63,5.63,0,0,0-3.72,1,1.24,1.24,0,0,1-.39.22,3.24,3.24,0,0,0-1.57.69,4.12,4.12,0,0,0-.35.31,3.8,3.8,0,0,1-1.65,1.07,5.75,5.75,0,0,0-2.2,1.4l0,0c-.08.06-.23.17-.41.28a7.5,7.5,0,0,0-1.41,1.15,5.59,5.59,0,0,0-.48.62c-.21.3-.32.46-.59.51a1.11,1.11,0,0,0-.86.68,1.28,1.28,0,0,1-.74.8l-.14,0h0l-.44.14-.77.16-.31.07a20.06,20.06,0,0,0-3.64,1c-.54.23-1.07.48-1.56.75l-.36.21c-2.17,1.28-7.32-.18-10.4-1.05-.66-.19-1.23-.35-1.63-.44a12.29,12.29,0,0,0-6.68.14,11.36,11.36,0,0,0-3.31,1.49h0c-.33.08-3.27,1-4.55,5.9a28.36,28.36,0,0,0-.49,8A27.26,27.26,0,0,1,66.12,42l-.1.35.25-.27a5.4,5.4,0,0,0,.83-2.51A32.52,32.52,0,0,1,66.31,46a23.94,23.94,0,0,1-2.12,5.66ZM70.34,39A51.23,51.23,0,0,1,69,28.85,18.54,18.54,0,0,0,70.72,33c.27.51.51,1,.66,1.32a.6.6,0,0,0,.09.15A3.5,3.5,0,0,1,71.15,38c-.27.44-.53.81-.78,1.14A.58.58,0,0,0,70.34,39Z"/><path class="cls-13" d="M20.83,56.19s-.15,1-1,.08a3,3,0,0,0-.23-.48A6,6,0,0,1,19.3,54c0-.58-.27-1.94-.31-3.54s-.07-1.28.47-1.87a8.7,8.7,0,0,0,1.63-2.17,25.57,25.57,0,0,0-2.43-2.24c-.21,0-.61.17-.54-.52a6.61,6.61,0,0,1-1.68-4s-.19-2.14,2.25-4.79a11.87,11.87,0,0,1,9.19-4.12,18.73,18.73,0,0,1,6.46,1c.43.11,1.93,1,5.13-.19l.28.08V31.5l.15.08,0-.11s.29.19.29.15a1.49,1.49,0,0,0-.08-.23l.2.18-.05-.28.14.18,0-.23.21.15,0-.18.15.15,0-.24.19.18L41,31l.31.14,0-.15.21.11V31l.24.18,0-.22.17.16.08-.26.25.13,0-.17.2.17v-.18l.22.2,0-.2.24.16,0-.16.19.18.08-.23.24.24,0-.25.17.17,0-.2.14.21.11-.18.17.21.09-.21.16.24,0-.2.08.17.25-.2-.13.2.34-.11-.1.15.37-.1-.16.22.34-.15-.14.21L45.6,31l-.15.18.33-.1-.14.17.36-.06-.12.14.48,0-.21.13h.33l-.12.14.37,0-.15.17.36-.06-.14.11.29,0-.14.12.32,0-.12.14.27,0-.11.1.26,0-.15.17s.31,0,.42-.21.52-.88,1.17-.29c0,0,.5.24.22,1.58h.19l-.12.13h.26l-.09.1h.22l-.16.14.2,0-.11.11h.2L49.7,34,50,34l-.1.09s.1,0,.21.21a5.39,5.39,0,0,0,1.78,1.83,12,12,0,0,1,2,1.37c.22.19.61.43.83.58a5.21,5.21,0,0,1,1.71,3.56,2.19,2.19,0,0,1,0,.72.59.59,0,0,1-.73.43,1.12,1.12,0,0,1-.33,0,1,1,0,0,1-.6.06,2.61,2.61,0,0,1-1.49.11c-.67-.21-.52.26-2.7-.06a14.51,14.51,0,0,1-3.27-.77l-.89.29c-.56.19-1,.19-1.16.43a3.5,3.5,0,0,1-1.32,1.2,5.43,5.43,0,0,0-1.68,1.73c-.14.2-1.25,3.13-1.59,4.26s-.54,5,0,5.7,1,.57,1,.57,1.12.67.52.74a5.71,5.71,0,0,1-1.92,0s.14.51-.58.36-.67-.28-.71-.58a9,9,0,0,1-.28-1.78c0-.79-.18-.9-.18-.9a5.77,5.77,0,0,1-1.31,1.56c-.63.4-1.06.43-1.08.14s-.11-.66.36-1c0,0-.65.16-.8.41a.62.62,0,0,1-.21-1c.42-.64.46-.55.46-.55s-.81.19-.47-.23,1.28-1.4,1.52-1.75a1,1,0,0,0,.08-1.12s-.41-.71-.65-1S34.09,47,34,46.76l-.61.17-.22.19V47l-.33.18v-.11l-.5.18.08-.11-.31.08-.55,0-.34.12.05-.12s-1.07.05-1.9,0h-.23v-.07l-.33.07.06-.11-.36.14.12-.15-.29.09,0-.14-.25.12,0-.12-.2,0,0-.09-.25,0,0-.12-.21.08.1-.11-.24.09.11-.14-.23,0,0-.07H27l.16-.07-.25,0s-.38-.32-.54-.33a2.72,2.72,0,0,1-.58-.24s-.29.18-.32.32.06.17-.15.24a2.4,2.4,0,0,1,0,1s.06.28.18,1.2a18.5,18.5,0,0,0,.72,3,6,6,0,0,0,.73,1.9,6.63,6.63,0,0,0,2,2.29s.39.07,1.11.93a1.05,1.05,0,0,1-.79-.11s.5.56.24.66a2.05,2.05,0,0,1-1.32-.18,1.39,1.39,0,0,0-.48-.22s-.18.93-.66.77-.4-.41-.58-.64A4.41,4.41,0,0,1,26,56.13a5.83,5.83,0,0,0-1-1.67,2.64,2.64,0,0,1-.77-1.52,2,2,0,0,1-.62-1.11,11.59,11.59,0,0,0-.69-2.2s-1.44,1.45-1.47,2.53-.31,2.37.47,2.94l1.24.89-.34.13s.3.47.18.55a8.42,8.42,0,0,1-1.59-.32Z"/></g></g></svg>