<?xml version="1.0" encoding="UTF-8"?>
<svg viewBox="0 0 233.79 70.38" xmlns="http://www.w3.org/2000/svg">
<defs>
<style>
	.cls-1,
	.cls-2{fill:none;stroke:#1e1e1c;stroke-miterlimit:10;stroke-width:0.3px;}
	.cls-1{stroke-dasharray:1 1;}
	.cls-3{font-size:6.32px;}
	.cls-10,
	.cls-3{fill:#1e1e1c;font-family:"Roboto", sans-serif;}
	.cls-4{letter-spacing:0em;}
	.cls-5{font-size:7.17px;fill:#8f8f24;font-family:"Roboto", sans-serif;}
	.cls-6{letter-spacing:-0.03em;}
	.cls-7{letter-spacing:0em;}
	.cls-8{letter-spacing:0em;}
	.cls-9{letter-spacing:-0.01em;}
	.cls-10{font-size:5px;fill:#848484;}
	.cls-11{fill:#343434;}
	.cls-12{fill:#33a94a;}
	.cls-13{fill:#848484;}
</style>

</defs>
<title>comparacion</title>
<g data-name="Layer 2">
<line class="cls-1" x2="233.79" y1="42.85" y2="42.85"/>
<line class="cls-1" x1=".38" x2="233.79" y1="22.55" y2="22.55"/>
<line class="cls-1" x1=".38" x2="233.79" y1="4.96" y2="4.96"/>
<line class="cls-2" x1=".38" x2="233.79" y1="61.79" y2="61.79"/>
<text class="cls-3" transform="translate(88.41 68.87)"><tspan x="13" y="0">Caballo</tspan></text>
<text class="cls-3" transform="translate(12.59 68.87)"><tspan x="6" y="0">Humano</tspan></text>
<text class="cls-5" transform="translate(49.22 68.87)"><tspan x="6" y="0">Tapir</tspan></text>
<text class="cls-3" transform="translate(131.21 68.97)"><tspan x="35" y="0">Rinoceronte</tspan></text>
<text class="cls-10" transform="translate(.81 61.13)">0m</text>
<text class="cls-10" transform="translate(.81 42.18)">1m</text>
<text class="cls-10" transform="translate(.81 21.55)">1,5m</text>
<text class="cls-10" transform="translate(.81 4.3)">2m</text>
<path class="cls-11" d="M148.91,42.46a5.4,5.4,0,0,0,.62,2.3s.1.09.13,0c.12-.26-.19-.94-.22-1.22a5.12,5.12,0,0,1,.35-2.92c.38-.79.93-1.47,1.32-2.25a5.24,5.24,0,0,0,.51-1.47,10,10,0,0,1,.67,2.16c0,1.48-.54,1.63.32,3.19s-.55,4.4-1.35,7.19a5,5,0,0,0-.25,2.36c0-.14,0-.29,0-.43a3.56,3.56,0,0,0,.11.69,7.46,7.46,0,0,0,1.42,2.15,4,4,0,0,1,.6,1.21,4.22,4.22,0,0,1-.88,4,.81.81,0,0,0-.22.83c0,.13.13.37.25.37h0s0,0,0,0l.14.09,0,0,.19.12h0l.21.1,0,0c.15.07.31.12.47.18h0l.23.06h0l.26.06h0l.24,0h0l.5.06h.51l.16,0h0l.16,0h0l.1,0,0,0h0s.08,0,.09,0h0c.06,0,.18.16.35.28l.11.08.1.06.14.09.11,0,.17.08L157,62l.19.07.11,0a1.77,1.77,0,0,0,.32,0,4,4,0,0,0,1.83-.51s.05,0,.06,0,0,0,0,0a1.94,1.94,0,0,0,.72.21h0c.06,0,.13-.1.2-.09s0-.11.05-.11H161l.15,0,.09,0,.13,0,.09,0,.12,0,.09,0,.1-.07.08-.06.09-.09a.23.23,0,0,0,.07-.07l.08-.12,0-.08q0-.11.09-.24s0-.06,0-.08h0a1.42,1.42,0,0,0-.08-.73,5.82,5.82,0,0,0-2.2-2.16,5.5,5.5,0,0,1-1.32-2,5.44,5.44,0,0,1,.59-4.52h0c.21-.36.41-.63.53-.8l.16-.18c7.34-3,6-7,5.8-7.56h0a8.67,8.67,0,0,0,2.72,3.35,5.33,5.33,0,0,1,.2,3.55.87.87,0,0,0-.11.18s0,0,0,0a4,4,0,0,0-.19,3.2s0,0,0,0a1.9,1.9,0,0,0,.31.64,1.47,1.47,0,0,1,.1.22,9.87,9.87,0,0,1,.58,3.7l-.07.11s0,0,0,0c-.39.32-2.14,1.94.13,3.38l.15.09h0a.39.39,0,0,0,.11.06l.29.16.14.07.3.12.11,0,.29.09.1,0,.28.06h.08l.27,0h.38l.25,0h0l.23,0h0l.22-.06h0a2.23,2.23,0,0,0,.76-.43h-.19c.6.29.73.48,1,.58h.13a.83.83,0,0,0,.21.06l.12,0,.17,0h.5l.13,0h.09l.28-.07,0,0,.12,0,.07,0,.12,0,.06,0,.1,0,.05,0,.16-.08,0,0,.06,0,0,0,0,0,0,0h0s0,0,0,0-.14.47.63.47h0a4.35,4.35,0,0,0,1.15-.41c.07,0,.13-.12.19-.16l.05,0,.11-.07.05,0,.08-.08,0,0a.47.47,0,0,0,.06-.09,0,0,0,0,0,0,0,.33.33,0,0,0,0-.13s0,0,0,0,0-.07,0-.11v0s0-.06,0-.09,0,0,0-.06a.29.29,0,0,0,0-.09v0l.05,0a.57.57,0,0,0-.08-.13,6.21,6.21,0,0,0-3-2.52c-1.32-.5-.79-1.64-1.76-3.37-.33-.6-.62-.81-.4-1.25a2,2,0,0,0,.36-.36s0-.06-.06-.06a6.12,6.12,0,0,1,.45-.47,5.23,5.23,0,0,0,.48-.56,2.09,2.09,0,0,0,.22-.2s0,0-.05,0a8.71,8.71,0,0,0,1.08-2.65c.83.1,1.7.17,2.62.21,7.1.32,11.06-2.33,11.56-2.69a.11.11,0,0,0,.08,0,22.58,22.58,0,0,1,1,3.5h-.06A5.13,5.13,0,0,0,192,52.8c.12.28.43.55.43.81h0s.07.06.09.08L193,58h0s0,0,0,0l-.05.06v0l-.06.07v0l-.08.11h0c-.43.61-1.35,2.07-1,3.2a.84.84,0,0,0,.06.14.83.83,0,0,0,0,.15h0a.43.43,0,0,1,0,.07,1.88,1.88,0,0,0,.18.24,1.45,1.45,0,0,0,.22.21l.07.07.13.1.09.06a.6.6,0,0,0,.11.06l.09,0,.1,0,.09,0,.1,0,.09,0h.59l.36,0h.85l.15,0,.16,0,.11,0,.05,0h0c-.08,0-.12,0-.12,0s.65.21,1.19.36a5.83,5.83,0,0,0,.71.19h0l.39.06h.08a2.42,2.42,0,0,0,.67,0h.06a1.84,1.84,0,0,0,.47-.18l0,0a1.11,1.11,0,0,0,.16-.12h0a.93.93,0,0,0,.14-.14s0,0,0,0a1.1,1.1,0,0,0,.11-.14h.07l-.05,0h-.06a.11.11,0,0,0,0-.06s0,0,.06,0v-.05h.09l0,0,.12,0h.31l.14,0,.1,0,.16,0h.07l.2-.06.07,0,.2-.08,0,0a1.32,1.32,0,0,0,.2-.12.76.76,0,0,0,.09-.09.05.05,0,0,1,0,0l0-.09a.13.13,0,0,0,0-.06.25.25,0,0,0,0-.09s0,0,0-.07l0,0h0l0,0,.05,0v0c.3,0,.61.12.87.12h0s.07-.16.11-.16.13-.16.19-.16h.07l.21,0h0l.17.06.07,0h0l0,0h0a4.76,4.76,0,0,0,1.69.53h.73a1.9,1.9,0,0,0,.25,0l.07,0,.15,0,.07,0,.12,0h0l.12,0h0s.08.05.09,0l0-.05h0a1.39,1.39,0,0,0,.68.3s0,0,0,0,.15.12.23.12h0c.08,0,.16-.09.23-.09s0-.1.06-.1l.21,0h0l.21-.06.05,0a.53.53,0,0,0,.17-.08h0a.61.61,0,0,0,.15-.12l0,0a.86.86,0,0,0,.1-.16,1.11,1.11,0,0,0,.1-.29.36.36,0,0,0,0-.1,1,1,0,0,0,0-.17v-.1c0-.05,0-.05,0-.1s0,0,0,0v.24h0a4.63,4.63,0,0,0-2.3-2.78,6.69,6.69,0,0,1,0-2.89l.06,0s0-.06,0-.06c0-.21.1-.42.16-.63,0,0,0,0,.05,0s0,0,0,0A16.84,16.84,0,0,1,208,52.06l.09-.07s0,0,0,0c.32-.63.66-1.23,1-1.78a1.21,1.21,0,0,0,.21-.24,0,0,0,0,0,0,0l.53-.83A5.79,5.79,0,0,0,211,46.51h0s0,0,0,0,.06-.3.1-.44a.5.5,0,0,0,0-.13c0-.1.05-.19.07-.29l0-.13c0-.09,0-.18,0-.26l0-.1.06-.31h0c0-.1,0-.19,0-.27v-.06s0-.09,0-.12c.32,0,.81-.29,1.37-1.3a8.63,8.63,0,0,1,4.17,2.63c1.77,2.08,2.26,1.23,4.15,1.63s3.32.65,4.11-1c0,0,0,0,0,0,.26,0,2.84,0,3.52-1.68a1.51,1.51,0,0,0,.12-1.1s0,0,0-.07h0s0,0,0-.08a.25.25,0,0,0,0-.07.59.59,0,0,0,0-.08l0-.07L228.6,43l0-.08-.06-.09a.59.59,0,0,0,0-.08.59.59,0,0,1,0-.08.36.36,0,0,1,0-.09l0-.09s0,0,0-.08,0-.09,0-.14a.14.14,0,0,0,0-.06c0-.06,0-.13,0-.2l-.05,0a2.62,2.62,0,0,1,.11-1s.65-.29.05-1.59h.2a2.38,2.38,0,0,1-.64.81l-.06,0s0,0,0,0a5,5,0,0,0,.85-.74s0,.13,0,.12.06.14.14.14h0c.88-1.2,5-5.7,3.82-12,0-.07,0-.4,0-.45s0,0,0,0a.94.94,0,0,0,0-.09l0,0s0-.05-.05-.06h0s-.05,0-.07,0h-.07l0,0-.06.05,0,0-.09.12,0,0s-.1.14-.12.19l-.11.11v0a10.14,10.14,0,0,1-.18,1.25C231.56,30.45,229,35,225.51,35h0a1.29,1.29,0,0,0,0-.34.7.7,0,0,0-.79-.52.49.49,0,0,0,0-.3c0-.09-.1-.14-.25-.15a1.45,1.45,0,0,1-1,.33,2,2,0,0,0,.91-.21h.18a9.36,9.36,0,0,0,2.07-4.61c0-.13,0-.4,0-.52s0-.07,0-.1,0-.19,0-.26a.45.45,0,0,1,0-.12c0-.1,0-.38,0-.38h0s0-.06,0-.13,0,.07,0,0,0-.12,0-.17,0,0,0,0,.06-.22.06-.3h.1s.2-.07.2-.1h0V27h0s-.24,0-.25,0h-.22l0,0h0l0,0h0l0,.05h0a.18.18,0,0,0-.05.07l0,0,0,.05v0h0a10.8,10.8,0,0,0-.54,1,5.71,5.71,0,0,1-3.57,2.85h-.2a.91.91,0,0,0,0-.38.64.64,0,0,0-.57-.5s-.64-.33-1.15-1.91c-.07-.22-.14-.47-.2-.75-.38-1.67.12-3.51-.5-5.54a7.11,7.11,0,0,0-.86-1.79c.12-.83.9-1.2,2.4-2.56,1.66-1.52.57-6.69.57-6.69-.18.53-.91,1.18-2.84,2.55a3.56,3.56,0,0,0-1.53,4,2.93,2.93,0,0,1,0,1.16,6.19,6.19,0,0,0-3.75-1.12s-1.22-.14-2.88-2.32a6.85,6.85,0,0,0-2.64-2l0,0,0,0c-.26-.34-2.11-2.64-4.11-2.93a7.39,7.39,0,0,1,.14,1.93s-.05,0-.06,0v0a10.5,10.5,0,0,0-6.81,1.57h0l-.1,0a17,17,0,0,1-2.5-.72c-1.26-.48-3.07-.35-7.37,1.48s-7-.09-9-.83-7.07-.77-8.63-1.24c-7.66-2.31-18.35,1.42-19,12.21-.08,1.38-.11,2.62-.1,3.73-.73,1.12-.41,2.7-.32,4a12.19,12.19,0,0,1-.84,5.92A7.06,7.06,0,0,0,148.91,42.46Zm50,15.58c-.43-1.1-.28-3,.27-5.09a1.53,1.53,0,0,0,.13-.32,0,0,0,0,0,0,0c0-.09,0-.18.07-.27.12-.4.22-.75.32-1.06,0-.08.07-.16.1-.25a0,0,0,0,0,0,0c.41-1.33.63-1.83.72-2.21a1.25,1.25,0,0,0,.11-.39h0s0,0,0-.06c.17,0,.54-.07,1-.17a15.29,15.29,0,0,0-.11,2s-.07,0-.06,0a2.14,2.14,0,0,0,.06.27c0,1.88.14,3.85-.25,4.64a4.87,4.87,0,0,0-.43,2.3l-.15.23s0,0,.05.05l-.14.18h0a7,7,0,0,0-.69,1.21l-.27-.17A1.56,1.56,0,0,1,198.91,58Zm28.84-17.82h0Zm-32.2,22.6h0Zm-4.8-16.49h0v0Z"/>
<path class="cls-13" d="M86.89,57.22l.13.11.07-.06a10.84,10.84,0,0,0,1.8-2.59,10.29,10.29,0,0,1-1.17,3l0,0,0,.09,0,0a3.8,3.8,0,0,0,1.27.2,5.07,5.07,0,0,0,.66,0l.17,0h0c1.32-.71,1.63-2.55,1.65-3.77a6.35,6.35,0,0,1-.1,3.1l0,.06.09.09.07,0a7.4,7.4,0,0,0,1.09-.68c0,.12,0,.23-.06.32-.27,1-.06,1.23.36,1.65a4.08,4.08,0,0,1,.35.36c.32.37.29.48.27.59s0,.24.14.44a.67.67,0,0,0,.16.12c.51.58,0,1.94,0,2l0,.07.07,0a3.88,3.88,0,0,0,1.81.35,10.33,10.33,0,0,0,1.73-.16l.12,0-.16-.28c-.07-.13-.17-.31-.3-.52l0,0c-.2-.34-.63-1.07-.87-1.43l0-.07c-.09-.13-.14-.17-.19-.17s-.67-.66-.6-1.07a2.85,2.85,0,0,0-.24-2.1,10.5,10.5,0,0,1-.27-3.3,10.86,10.86,0,0,1,.31-3.11l.07-.08a3.06,3.06,0,0,0,.9-2.28.5.5,0,0,1,.17-.43c0,.09.08.19.13.29a23,23,0,0,1,1.64,7.46,1.76,1.76,0,0,0,.62,1.85l.4.41c.39.43.38.57.37.69a.45.45,0,0,0,0,.2h0l0,0a.11.11,0,0,0,0,.12c.67.69.3,2.68.3,2.71l0,.08.06,0a3.87,3.87,0,0,0,2.15.53,8,8,0,0,0,2-.25l.14,0-.27-.41-.5-.75,0,0c-.29-.44-.87-1.29-1.22-1.76l0,0-.06,0-.12-.11a.68.68,0,0,0-.15-.15,1.82,1.82,0,0,1-.56-1,3.87,3.87,0,0,0-.56-2.36,13.45,13.45,0,0,1-.79-3.78,13.46,13.46,0,0,1-.18-3.55l0-.09a3.29,3.29,0,0,0,.55-2.58c-.08-.42.15-.6.59-.94h0l0,0c.67-.52,1.93-1.49,2.59-4.72.08-.41.17-.84.28-1.31.07-.3.14-.6.21-.88s.13-.51.19-.75l.06-.05h0l0,0a2,2,0,0,1,.54,0l.16,0h.14l.09,0,.11,0,.13,0h0l.13,0a4.94,4.94,0,0,1,.55.29l0,0,.15.09.06,0,.16.1.07.05.28.2.46.31.32.23.1.07.25.17.11.08.07,0,.48.31.16.09.08,0,.27.16.22.12.25.13,0,0,.23.11a1,1,0,0,0,.21.1l.17.07a3,3,0,0,0,.36.15l.2.08.23.08.28.09h0c.11,0,.21.07.32.09s.23.06.34.09l.36.08a44.1,44.1,0,0,0,9.69,1h0c0,.12,0,.24,0,.37a7.27,7.27,0,0,1-.16.93,14.13,14.13,0,0,0-.22,3.26,7.46,7.46,0,0,1-.2,2.42v0a2.06,2.06,0,0,0-.19,1.84l0,.18a19,19,0,0,1-1,5.4c-.39,1-.7,2.06,0,2.39s1.29.93,1.23,1.31v.07l.06,0,0,0a.08.08,0,0,0,0,.05c.52.54-.13,2-.14,2l0,.08.07,0a2.19,2.19,0,0,0,.72.25h0l.1,0,.15,0h.76a11.11,11.11,0,0,0,1.74-.15l.11,0-.12-.28-.24-.52,0-.05c-.16-.34-.5-1-.7-1.41a.43.43,0,0,0,0-.07l0-.06,0,0-.13-.08s0,0,0,0S123,58.31,123,57.51a1.4,1.4,0,0,1,.17-.69.5.5,0,0,0,.08-.38.62.62,0,0,0-.19-.43.36.36,0,0,1-.11-.36c0-.08,0-.25,0-.48a20.5,20.5,0,0,1,.67-3.89,10.15,10.15,0,0,0,.49-1.28,9.52,9.52,0,0,0,.27-1v0c.15-.74.46-2.1.81-3.31l.09.77a7,7,0,0,1,.08,2.45,2,2,0,0,0,0,1.86l.06.18a17.51,17.51,0,0,1-.36,5.43c-.27,1-.45,2.07.26,2.39s1.42,1,1.4,1.34v.07l.06,0,.08,0s0,0,0,0c.58.55.1,2,.09,2l0,.07.06,0a4,4,0,0,0,1.82.35,10,10,0,0,0,1.72-.16l.13,0-.16-.28-.3-.52,0,0c-.2-.34-.62-1.07-.87-1.43l0-.07,0-.05h0l-.06,0c-.06-.06-.09-.08-.14-.08h0c-.25-.15-1.26-.81-1.28-1.55a1.2,1.2,0,0,1,.09-.7.53.53,0,0,0,0-.38.73.73,0,0,0-.24-.43.43.43,0,0,1-.16-.37c0-.08,0-.25,0-.48a20.58,20.58,0,0,1,.21-3.91,11.12,11.12,0,0,0,.5-2.32v0a22.61,22.61,0,0,1,.95-5.29,16.63,16.63,0,0,0,1.17-4.19,3.71,3.71,0,0,1,.12-.63l0-.16h0v0c1.21-.6,1.85-1.54,2.43-3.59a4.85,4.85,0,0,0,.34-.83v0a5.86,5.86,0,0,0,.24-2c0-.28,0-.52,0-.74a.17.17,0,0,1,0-.07v-.08l0-.33h0v-.16a5,5,0,0,1,1-2.94,33.21,33.21,0,0,0,1.5-3,10.13,10.13,0,0,1,1.87-3.21l.15-.11a3,3,0,0,1,.69-.35,1.72,1.72,0,0,1,1.05-.12c.08.15.14.24.15.26a1.25,1.25,0,0,0,.25.29,4.83,4.83,0,0,0,2.69.85l.38,0c.2.08,2.5,1,2.84,1.29.1.07.12.2.15.36s.13.72.92.73l.65,0c.59,0,.83,0,.93-.09l0,0a.1.1,0,0,0,0,0,.17.17,0,0,0,0-.07,2.56,2.56,0,0,0,.45-.12,1.21,1.21,0,0,0,.43-.29h0l0,0a1.08,1.08,0,0,0,.21-.49.68.68,0,0,1,0-.15v-.06a3.16,3.16,0,0,1,.17-.59,1,1,0,0,0,.11-.53,3.2,3.2,0,0,0-.52-1.27A13.93,13.93,0,0,0,148.14,20a16.87,16.87,0,0,1-1.84-2.61,8.46,8.46,0,0,0-.62-1c-.11-.14-.27-.37-.46-.63l-.16-.23-.23-.33c-.18-.25-.38-.52-.59-.79h0l.12.05,0-.07a3.52,3.52,0,0,0-.57-1l.36.21.3.19-.18-.31a2.27,2.27,0,0,0-.76-.78,3.83,3.83,0,0,0-.17-2l-.14-.32,0,.35a2.09,2.09,0,0,1-.76,1.37l-.16.14-.1,0a3.88,3.88,0,0,0-.16-2.08l-.14-.33,0,.36a2.07,2.07,0,0,1-.75,1.37,5.27,5.27,0,0,0-.63.58,5.81,5.81,0,0,0-3.88,1,1.11,1.11,0,0,1-.42.23,3.35,3.35,0,0,0-1.64.73c-.1.07-.22.19-.37.32a4,4,0,0,1-1.72,1.12,6,6,0,0,0-2.3,1.45l0,.05c-.08.07-.24.17-.42.3a7.09,7.09,0,0,0-1.48,1.19c-.23.26-.38.48-.51.65s-.33.48-.61.53a1.18,1.18,0,0,0-.9.72,1.34,1.34,0,0,1-.77.83l-.15.06h0a3.53,3.53,0,0,1-.46.15l-.8.17-.33.07a21.29,21.29,0,0,0-3.8,1.1,16.56,16.56,0,0,0-1.64.79l-.37.21c-2.26,1.34-7.65-.18-10.88-1.1-.68-.19-1.28-.36-1.69-.45a12.92,12.92,0,0,0-7,.14A12.11,12.11,0,0,0,94.77,24h0c-.35.09-3.42,1-4.76,6.17a29.83,29.83,0,0,0-.51,8.4A28,28,0,0,1,88.94,47l-.1.37.26-.29A5.43,5.43,0,0,0,90,44.45a35,35,0,0,1-.83,6.79,25.26,25.26,0,0,1-2.22,5.91Zm6.47-13.35a53.25,53.25,0,0,1-1.44-10.58,19.46,19.46,0,0,0,1.83,4.32A14.65,14.65,0,0,1,94.44,39a.86.86,0,0,0,.1.16,3.68,3.68,0,0,1-.33,3.68c-.29.45-.56.84-.81,1.19C93.38,44,93.38,43.92,93.36,43.87Z"/>
<path class="cls-12" d="M52.3,61s-.16,1-1,.08c0,0-.1-.24-.23-.48a5.88,5.88,0,0,1-.27-1.82c0-.58-.26-1.93-.3-3.53s-.07-1.29.47-1.88a8.52,8.52,0,0,0,1.63-2.17A25.53,25.53,0,0,0,50.13,49c-.21,0-.61.16-.54-.53a6.61,6.61,0,0,1-1.68-4s-.2-2.14,2.25-4.79a11.83,11.83,0,0,1,9.19-4.11,18.2,18.2,0,0,1,6.46,1c.42.11,1.93,1,5.13-.2l.28.08v-.12l.15.08,0-.11s.29.2.29.15a1.38,1.38,0,0,0-.09-.23l.21.18,0-.28.13.18v-.23l.21.15,0-.18.15.15,0-.23.2.18.12-.26.3.13v-.15L73,36v-.18l.24.18,0-.22.16.17.09-.27.24.13,0-.17.2.17v-.18l.22.21,0-.21.23.16,0-.16.2.18.08-.22.23.23.06-.25.17.17,0-.19.14.2.11-.18.17.21.09-.21.15.24.05-.19.08.16.25-.19-.13.19.33-.11-.09.15.37-.09-.17.22.35-.16-.14.21.32-.15-.15.18.33-.1-.14.17.36-.06-.13.14h.49l-.21.12H78l-.12.14.37,0-.15.16.36,0-.14.11.29,0-.14.12.32,0-.13.13.28,0-.11.09.26,0-.15.16a.53.53,0,0,0,.41-.21c.11-.19.53-.88,1.18-.28,0,0,.49.23.22,1.57h.19l-.12.14H81l-.1.09.22,0L81,38.5l.2,0-.12.11h.21l-.12.12.25,0-.1.1s.1,0,.21.2A5.38,5.38,0,0,0,83.31,41a11.56,11.56,0,0,1,2,1.36,8.34,8.34,0,0,0,.83.58,5.24,5.24,0,0,1,1.71,3.56,2.19,2.19,0,0,1,0,.72.59.59,0,0,1-.73.43,1.43,1.43,0,0,1-.34,0,1,1,0,0,1-.59,0,2.61,2.61,0,0,1-1.49.11c-.68-.2-.52.27-2.7,0A14.79,14.79,0,0,1,78.72,47l-.88.29c-.56.2-1,.2-1.16.43a3.43,3.43,0,0,1-1.32,1.2,5.51,5.51,0,0,0-1.69,1.73c-.13.21-1.24,3.13-1.58,4.26s-.54,5,0,5.7,1,.57,1,.57,1.11.67.52.74a5.76,5.76,0,0,1-1.92,0s.14.51-.58.35-.67-.27-.72-.58a9.2,9.2,0,0,1-.27-1.78c0-.78-.18-.89-.18-.89a5.77,5.77,0,0,1-1.31,1.56c-.64.4-1.07.42-1.08.13s-.11-.66.36-1c0,0-.65.16-.8.41a.62.62,0,0,1-.21-1c.42-.63.46-.55.46-.55s-.82.19-.47-.22,1.28-1.41,1.52-1.76a1,1,0,0,0,.08-1.11s-.41-.72-.65-1-2.33-2.73-2.41-3l-.61.17-.22.19,0-.13L64.3,52l0-.11-.5.18.08-.11-.32.09H63l-.33.12,0-.12s-1.06.06-1.89,0h-.23V52L60.3,52l.06-.11-.36.14.12-.15-.29.1,0-.14-.25.11,0-.11-.21,0,0-.08-.25,0,.05-.13-.21.09.1-.11-.24.08.11-.14-.23,0,0-.07h-.32l.15-.07-.25,0a1.88,1.88,0,0,0-.53-.33,2.35,2.35,0,0,1-.58-.23s-.29.18-.32.31,0,.17-.15.24a2.4,2.4,0,0,1,0,1s.06.28.18,1.21a17.6,17.6,0,0,0,.72,3,5.81,5.81,0,0,0,.73,1.91,6.82,6.82,0,0,0,2,2.29s.39.07,1.1.92a1,1,0,0,1-.78-.11s.49.57.23.66a2.09,2.09,0,0,1-1.31-.17,1.85,1.85,0,0,0-.48-.23s-.18.93-.66.78-.4-.42-.58-.65A4.47,4.47,0,0,1,57.46,61a5.57,5.57,0,0,0-1-1.67,2.74,2.74,0,0,1-.78-1.52,2.07,2.07,0,0,1-.62-1.12,11,11,0,0,0-.69-2.19S53,55.89,52.93,57s-.32,2.37.47,2.94l1.24.9-.34.12s.3.47.18.55a7.73,7.73,0,0,1-1.59-.31Z"/>
<path class="cls-11" d="M30.06,30.73a7.47,7.47,0,0,1,.08-.8,8,8,0,0,0-.32-3.12,27.15,27.15,0,0,0-.63-2.72,2.79,2.79,0,0,0-2-1.55A7.77,7.77,0,0,1,26,22.1a5.81,5.81,0,0,0-.75-.23,1.35,1.35,0,0,1-.52-.29A1.93,1.93,0,0,1,24,20.33a1.75,1.75,0,0,0,.48-.6h0a2.33,2.33,0,0,0,.11-.28l0-.05c0-.17.05-.45.17-.56l.2-.14c.22-.17.22-.22.26-.5,0-.13.21-.73,0-.9s-.24,0-.25-.09a3.19,3.19,0,0,1,0-.57h0v0h0c0-.08,0-.14,0-.17a4.73,4.73,0,0,0-.08-.91,1.26,1.26,0,0,0-.26-1.07,3.08,3.08,0,0,0-.71-.69,3.43,3.43,0,0,0-1-.25,3.36,3.36,0,0,0-1.05,0,4.77,4.77,0,0,0-.93.28c-.23.1-.26.28-.36.49a1,1,0,0,1-.17.27c-.06.06-.15,0-.2.12a4.89,4.89,0,0,0-.14,1.44h0c0,.11,0,.21,0,.32s.07.66.05.78-.14,0-.26.09,0,.77.05.9c0,.28,0,.33.26.5l.2.14c.13.12.13.44.18.61a1.81,1.81,0,0,0,.59.88,2,2,0,0,1-.74,1.25,1.47,1.47,0,0,1-.53.29,5.81,5.81,0,0,0-.75.23,7.35,7.35,0,0,1-1.13.44,2.81,2.81,0,0,0-2,1.55c-.39.85-.27,1.62-.63,2.72a8,8,0,0,0-.31,3.12c0,.23.07.58.08.8A7.81,7.81,0,0,1,15,32.26a8.19,8.19,0,0,0-.13,2.93,27.19,27.19,0,0,1,.22,3,2.5,2.5,0,0,1-.09.72,3.1,3.1,0,0,0-.1,1.25A10,10,0,0,0,15.3,42a3.94,3.94,0,0,0,1.1.7c.2,0,.57.28.66.27s.12-.39.05-.49a2.71,2.71,0,0,0-.42-.41,1.09,1.09,0,0,1-.37-.6,4.59,4.59,0,0,1,0-.75c0-.09,0-.37.19-.29s.1.07.12.36.15,1.05.71.84c.18-.07.14-.3,0-.5a2.71,2.71,0,0,1-.14-.45,2.33,2.33,0,0,1-.08-.59,1.85,1.85,0,0,0-.48-1c-.27-.37.09-1.71.4-3a6.89,6.89,0,0,0,.22-2.39,8.09,8.09,0,0,1,0-1.63c.09-.53.37-1.29.5-2.1a11.63,11.63,0,0,0,.41-2.37c.14,1.46.65,2.72.54,3.94-.14,1.49.15,1.92,0,2.87-.1.5-.26.63-.41,1.26a18.81,18.81,0,0,0-.32,2.39c-.13,1.72-.06,1.38-.1,2.87A21.57,21.57,0,0,0,18.34,46a8.89,8.89,0,0,1,.31,3.71,9.47,9.47,0,0,0,.05,4c.43,1.72.95,3.68,1.08,4.78s.15,1.48-.05,1.82-.82,1-.83,1.16-.27.5.67.5,1.14.07,1.34-.07a.12.12,0,0,1,.16,0c.06.06.17.12.41.06s.34-.21.34-.5a2.6,2.6,0,0,1,0-.57,8,8,0,0,1,0-1.12c.12-.64-.18-.84-.16-2.82,0-1.72.44-3.19.32-4.21a25.48,25.48,0,0,1-.53-3.33c.06-.76.71-1.29.58-3.9-.06-1.25.23-1.56.33-5.11,0-.27.54-.27.55,0,.1,3.55.39,3.86.33,5.11a9.65,9.65,0,0,0,.58,3.9,27.29,27.29,0,0,1-.53,3.33c-.12,1,.3,2.49.31,4.21,0,2-.27,2.18-.15,2.82a9.91,9.91,0,0,1,0,1.12,5.07,5.07,0,0,1,0,.57c0,.29.1.45.33.5a.42.42,0,0,0,.42-.06.12.12,0,0,1,.16,0c.19.14.36.07,1.33.07s.69-.3.68-.5-.63-.81-.83-1.16-.19-.73-.06-1.82.66-3.06,1.09-4.78a9.45,9.45,0,0,0,0-4A8.89,8.89,0,0,1,26.94,46,21.57,21.57,0,0,0,27.46,41c0-1.49,0-1.15-.1-2.87a19,19,0,0,0-.31-2.39c-.16-.63-.32-.76-.41-1.26-.18-1,.1-1.38,0-2.87-.12-1.22.4-2.48.54-3.94a11.5,11.5,0,0,0,.4,2.37c.14.81.41,1.57.51,2.1a8.9,8.9,0,0,1,0,1.63,7.14,7.14,0,0,0,.22,2.39c.32,1.24.67,2.58.4,3a1.86,1.86,0,0,0-.47,1,2.86,2.86,0,0,1-.23,1c-.09.2-.14.43,0,.5.55.21.68-.55.7-.84s0-.3.12-.36.2.2.2.29a4.57,4.57,0,0,1-.05.75,1,1,0,0,1-.37.6,2.71,2.71,0,0,0-.42.41c-.07.1-.17.49,0,.49s.47-.25.67-.27A3.75,3.75,0,0,0,30,42a10.63,10.63,0,0,0,.37-1.81,3.5,3.5,0,0,0-.1-1.25,2.91,2.91,0,0,1-.1-.72c0-.46.07-2,.23-3a8.21,8.21,0,0,0-.14-2.93A8.64,8.64,0,0,1,30.06,30.73Z" data-name="Man Front"/>
<path class="cls-13" d="M46.49,39.84a4.23,4.23,0,0,1-.1-.8c0-.28-.1-.5-.09-1.2S46,34.58,46,33.32s-.39-1.85-.44-2.76A36.09,36.09,0,0,1,45,25.38a1.87,1.87,0,0,0-.64-1.53,3.65,3.65,0,0,0-1.72-.61c-.51-.13-.84-.4-1.16-.48a1.23,1.23,0,0,1-.52-.27c-.11-.12-.29-.31-.42-1.19a3.11,3.11,0,0,0,.53-.63,4.54,4.54,0,0,0,.46-.86.7.7,0,0,1,.27-.34h0c.26-.18.26-.24.31-.52s.24-.76,0-.94-.28,0-.3-.09a3.41,3.41,0,0,0-.13-1.19c-.25-.79-.54-1.46-1.39-1.72a1.5,1.5,0,0,0,0-.37,1,1,0,0,0-.47-.58,1,1,0,0,0-.41-.08.86.86,0,0,0-.87.66,1.14,1.14,0,0,0,0,.37c-.86.26-1.14.93-1.39,1.72A3.67,3.67,0,0,0,37,17.92c0,.08-.16,0-.29.09s0,.8,0,.94a.56.56,0,0,0,.3.52h0a.67.67,0,0,1,.28.34,4.46,4.46,0,0,0,.45.86,3.93,3.93,0,0,0,.53.63c-.12.88-.3,1.07-.41,1.19a1.27,1.27,0,0,1-.53.27c-.31.08-.64.35-1.15.48a3.58,3.58,0,0,0-1.72.61,1.84,1.84,0,0,0-.64,1.53,36.09,36.09,0,0,1-.53,5.18c-.05.91-.36,1.5-.45,2.76s-.33,3.82-.33,4.52-.11.92-.1,1.2a4.23,4.23,0,0,1-.1.8,6.07,6.07,0,0,0,.13,1.87,1.68,1.68,0,0,0,.53.92,2.54,2.54,0,0,0,.5.32c.1,0,.15,0,.23,0S34,43,34,43s-.5-.65-.6-.85a1.68,1.68,0,0,1,0-.84c0-.4.17-.73.25-.54a1.59,1.59,0,0,1,0,.62,1.1,1.1,0,0,0,0,.61c.14.2.31,0,.33-.15a6.53,6.53,0,0,1,.18-.9,1.39,1.39,0,0,0-.07-1.21,1.68,1.68,0,0,1-.36-1,3.8,3.8,0,0,1,0-1c.08-.6.63-1.94,1.21-3.77a7.15,7.15,0,0,0,.42-3.08c0-.85.21-2.16.31-3.19a10.82,10.82,0,0,0,.58,1.83,13.93,13.93,0,0,1,.3,3.35,6.83,6.83,0,0,1-.94,2.6,8.65,8.65,0,0,0-1,3.09A10.93,10.93,0,0,0,35.08,43,33.19,33.19,0,0,1,36,47.86c0,.81-.42,1.63-.42,3.58,0,2.33.41,2.36,1.12,7.66a2.09,2.09,0,0,1-.3,1.67c-.16.27-.63.74-.64.89s-.21.38.52.38,1.14.06,1.3,0a.09.09,0,0,1,.11,0,.3.3,0,0,0,.32,0,.32.32,0,0,0,.26-.38c0-.13,0-.21,0-.45s-.08-.38,0-.73-.71-.88.26-5.56a7.88,7.88,0,0,0-.12-4.31,8.34,8.34,0,0,1,.17-3.55c.13-.69,1.3-4.41.36-6.46a1.67,1.67,0,0,1,.47-.14,1.66,1.66,0,0,1,.48.14c-1,2,.22,5.77.35,6.46a8.34,8.34,0,0,1,.17,3.55,7.81,7.81,0,0,0-.11,4.31c1,4.68.16,5.07.25,5.56s0,.46,0,.73a2,2,0,0,1,0,.45c0,.22.08.34.26.38a.3.3,0,0,0,.32,0,.1.1,0,0,1,.12,0c.15.11.54,0,1.29,0s.54-.23.53-.38-.49-.62-.65-.89a2.14,2.14,0,0,1-.3-1.67c.71-5.3,1.12-5.33,1.12-7.66,0-1.95-.47-2.77-.41-3.58a34.29,34.29,0,0,1,.9-4.89,10.75,10.75,0,0,0,.51-4.38,8.28,8.28,0,0,0-1-3.09,6.67,6.67,0,0,1-.93-2.6,13.93,13.93,0,0,1,.3-3.35,10.82,10.82,0,0,0,.58-1.83c.09,1,.29,2.34.31,3.19A7,7,0,0,0,43.92,34c.57,1.83,1.13,3.17,1.2,3.77a3.44,3.44,0,0,1,0,1,1.83,1.83,0,0,1-.36,1,1.33,1.33,0,0,0-.07,1.21,5.55,5.55,0,0,1,.17.9c0,.15.2.35.33.15a1,1,0,0,0,0-.61,1.36,1.36,0,0,1,0-.62c.07-.19.2.14.25.54a1.55,1.55,0,0,1,0,.84c-.1.2-.7.69-.59.85s.18,0,.27,0,.13,0,.23,0a3.14,3.14,0,0,0,.51-.32,1.67,1.67,0,0,0,.52-.92A5.77,5.77,0,0,0,46.49,39.84Z" data-name="Woman Front"/>
</g>
</svg>