<?xml version="1.0" encoding="UTF-8"?>
<svg viewBox="0 0 105.62 542" xmlns="http://www.w3.org/2000/svg">
<defs>
<style>
	.cls-1{font-size:6.5px;fill:#1e1e1c;}
	.cls-1,
	.cls-16{font-family:"Roboto", sans-serif; font-weight:300;}
	.cls-10,
	.cls-17,
	.cls-18,
	.cls-2,
	.cls-25,
	.cls-29,
	.cls-30,
	.cls-6,
	.cls-7,
	.cls-8,
	.cls-9{font-family:"Roboto", sans-serif; font-weight:300;}
	.cls-10,
	.cls-3{letter-spacing:0em;}
	.cls-4{letter-spacing:-0.01em;}
	.cls-5,
	.cls-6{letter-spacing:-0.01em;}
	.cls-15,
	.cls-7{letter-spacing:0em;}
	.cls-11,
	.cls-8{letter-spacing:0em;}
	.cls-22,
	.cls-9{letter-spacing:-0.02em;}
	.cls-12{letter-spacing:0em;}
	.cls-13,
	.cls-17{letter-spacing:-0.01em;}
	.cls-14,
	.cls-18{letter-spacing:-0.01em;}
	.cls-19{letter-spacing:0em;}
	.cls-20{letter-spacing:0em;}
	.cls-21{letter-spacing:0.01em;}
	.cls-23{letter-spacing:-0.01em;}
	.cls-24{fill:#010202;}
	.cls-25{font-size:8.5px;}
	.cls-25,
	.cls-29,
	.cls-30{font-size:7px; fill:#fff;}
	.cls-26{fill:#8e8f24;}
	.cls-27,
	.cls-28,
	.cls-32{fill:none;stroke-linecap:round;stroke-miterlimit:10;}
	.cls-27{stroke:#8f8f24;stroke-width:12px;}
	.cls-28{stroke:#fff;}
	.cls-29{font-size:6px; },
	.cls-30{font-size:7px;}
	.cls-30{letter-spacing:-0.06em;}
	.cls-31{font-size:6px; letter-spacing:-0.06em;}
	.cls-32{stroke:#8e8f24;stroke-width:0.75px;stroke-dasharray:1 3;}
</style>
</defs>
<title>linea_tiempo</title>
<g data-name="Layer 2">

<text class="cls-1" transform="translate(3.67 67.92)">
	El ciclo de la hembra dura 
	<tspan x="0" dy="1.2em">60 días. Sin embargo, sólo</tspan> 
	<tspan x="0" dy="1.2em">2 o 3 días esta receptiva</tspan> 
	<tspan x="0" dy="1.2em">al macho.</tspan>
</text>

<text class="cls-1" transform="translate(7.94 348.17)">
	La Gestación es de 
	<tspan x="0" dy="1.2em">13 meses.</tspan>
	<tspan x="0" dy="2em">Tienen las crias en tierra.</tspan>
	<tspan x="0" dy="2em">Nacen con rayas para</tspan>
	<tspan x="0" dy="1.2em">mimetizarse.</tspan>
</text>

<text class="cls-1" transform="translate(38.77 136.58)">
	Puede tener
	<tspan x="0" dy="1.2em">más de 10 crias</tspan>
	<tspan x="0" dy="1.2em">en su vida</tspan>
	<tspan x="0" dy="1.2em">y máximo 1 a 2</tspan>
	<tspan x="0" dy="1.2em">por embarazo.</tspan>
</text>

<text class="cls-1" transform="translate(3.67 481.72)">
	Comienza el destete y
	<tspan x="0" dy="1.2em">a perder las rayas. Estas</tspan>
	<tspan x="0" dy="1.2em">desaparecen al comienzo</tspan>
	<tspan x="0" dy="1.2em">desde la parte superior,</tspan>
	<tspan x="0" dy="1.2em">hasta finalmente las</tspan>
	<tspan x="0" dy="1.2em">patas y cabeza.</tspan>
</text>


<path class="cls-24" d="M6.6,46H35.05a6.61,6.61,0,0,1,0,13.21H6.6A6.61,6.61,0,0,1,6.6,46Z"/>
<polygon class="cls-24" points="41.46 54.36 45.2 52.61 41.46 50.87 37.71 52.61"/>
<text class="cls-25" transform="translate(7.51 55.37)">2-3 días</text>
<path class="cls-26" d="M41.09,37.63H81.54a6.6,6.6,0,0,1,0,13.2H41.09a6.6,6.6,0,0,1,0-13.2Z"/>
<polygon class="cls-26" points="87.97 45.98 91.72 44.23 87.97 42.49 84.22 44.23"/>
<text class="cls-25" transform="translate(48.22 46.99)">60 días</text>
<path class="cls-26" d="M37.44,325.31H80.89a6.61,6.61,0,0,1,0,13.21H37.44a6.61,6.61,0,0,1,0-13.21Z"/>
<polygon class="cls-26" points="87.32 333.66 91.07 331.92 87.32 330.17 83.57 331.92"/>
<text class="cls-25" transform="translate(44.37 334.67)">13 meses</text>
<path class="cls-26" d="M38.09,458.62H81.54a6.61,6.61,0,0,1,0,13.21H38.09a6.61,6.61,0,0,1,0-13.21Z"/>
<polygon class="cls-26" points="87.97 466.97 91.72 465.23 87.97 463.48 84.22 465.23"/>
<text class="cls-25" transform="translate(46.99 467.98)">6 meses</text>

<line class="cls-27" x1="99.62" x2="99.62" y1="6" y2="531.83"/>
<line class="cls-28" x1="96.22" x2="102.92" y1="22.48" y2="22.48"/>
<line class="cls-28" x1="96.22" x2="102.92" y1="44.61" y2="44.61"/>
<line class="cls-28" x1="96.22" x2="102.92" y1="66.55" y2="66.55"/>
<line class="cls-28" x1="96.22" x2="102.92" y1="88.88" y2="88.88"/>
<line class="cls-28" x1="96.22" x2="102.92" y1="110.82" y2="110.82"/>
<line class="cls-28" x1="96.22" x2="102.92" y1="133.25" y2="133.25"/>
<line class="cls-28" x1="96.22" x2="102.92" y1="155.19" y2="155.19"/>
<line class="cls-28" x1="96.22" x2="102.92" y1="177.52" y2="177.52"/>
<line class="cls-28" x1="96.22" x2="102.92" y1="199.46" y2="199.46"/>
<line class="cls-28" x1="96.22" x2="102.92" y1="221.79" y2="221.79"/>
<line class="cls-28" x1="96.22" x2="102.92" y1="243.72" y2="243.72"/>
<line class="cls-28" x1="96.22" x2="102.92" y1="265.96" y2="265.96"/>
<line class="cls-28" x1="96.22" x2="103.16" y1="288.25" y2="288.25"/>
<line class="cls-28" x1="96.22" x2="103.16" y1="310.19" y2="310.19"/>
<line class="cls-28" x1="96.22" x2="103.16" y1="332.32" y2="332.32"/>
<line class="cls-28" x1="96.22" x2="103.16" y1="354.26" y2="354.26"/>
<line class="cls-28" x1="96.22" x2="103.16" y1="376.59" y2="376.59"/>
<line class="cls-28" x1="96.22" x2="103.16" y1="398.52" y2="398.52"/>
<line class="cls-28" x1="96.22" x2="103.16" y1="420.96" y2="420.96"/>
<line class="cls-28" x1="96.22" x2="103.16" y1="442.89" y2="442.89"/>
<line class="cls-28" x1="96.22" x2="103.16" y1="465.23" y2="465.23"/>
<line class="cls-28" x1="96.22" x2="103.16" y1="487.16" y2="487.16"/>
<line class="cls-28" x1="96.22" x2="103.16" y1="509.49" y2="509.49"/>
<line class="cls-28" x1="96.22" x2="103.16" y1="531.43" y2="531.43"/>
<text class="cls-29" transform="translate(98.63 263.44)">1
<tspan x="-4.06" y="9">año</tspan>
</text>

<text class="cls-29" transform="translate(97.85 7.85)">0</text>
<text class="cls-30" transform="translate(97.97 520.8)">2
<tspan class="cls-31">
<tspan x="-4.3" y="9">años</tspan>
</tspan>
</text>
<line class="cls-32" x1="28.14" x2="28.14" y1="287.58" y2="328.47"/>
<polygon class="cls-26" points="24.96 324.73 28.14 327.91 31.32 324.73 31.32 327.43 28.14 330.61 24.96 327.43"/>
<line class="cls-32" x1="4.07" x2="4.07" y1="332.32" y2="469.68"/>
<polygon class="cls-26" points="0.89 465.95 4.07 469.13 7.25 465.95 7.25 468.65 4.07 471.83 0.89 468.65"/>
<circle class="cls-26" cx="34.02" cy="212.65" r="3.17"/>
<circle class="cls-26" cx="34.02" cy="203.9" r="3.17"/>
<circle class="cls-26" cx="34.02" cy="195.07" r="3.17"/>
<circle class="cls-26" cx="34.02" cy="186.32" r="3.17"/>
<circle class="cls-26" cx="34.02" cy="177.41" r="3.17"/>
<circle class="cls-26" cx="34.02" cy="168.65" r="3.17"/>
<circle class="cls-26" cx="34.02" cy="159.82" r="3.17"/>
<circle class="cls-26" cx="34.02" cy="151.07" r="3.17"/>
<circle class="cls-26" cx="34.02" cy="142.32" r="3.17"/>
<circle class="cls-26" cx="34.02" cy="133.56" r="3.17"/>
<line class="cls-32" x1="28.14" x2="28.14" y1="94.07" y2="259.41"/>
</g>
</svg>
